# xmcd
#
# Track frame offsets:
# 150
# 25918
# 44550
# 61486
# 75110
# 87139
# 97117
# 112501
# 133471
# 149812
# 171885
# 195618
# 213613
# 234929
# 261816
# 274591
#
# Disc length: 3845 seconds
#
#
# Revision: 0
# Processed by: cddbd v1.5PL3 Copyright (c) Steve Scherf et al.
# Submitted via: FreeRIP 2.60 
#
DISCID=e20f0310
DTITLE=Georges Brassens - Balade en Brassensie
DYEAR=1900
DGENRE=Chanson
TTITLE0=J'me suis fait tout p'tit
TTITLE1=Le verger du roi Louis
TTITLE2=La balade des cimetières
TTITLE3=Le fossoyeur
TTITLE4=La ronde des jurons
TTITLE5=Bonhomme
TTITLE6=Pauvre Martin
TTITLE7=La route aux 4 chansons
TTITLE8=Pénélope
TTITLE9=Les funérailles d'antan
TTITLE10=Medley
TTITLE11=L'orage
TTITLE12=La princesse et le croquenote
TTITLE13=Extraits de diverses chansons
TTITLE14=J'ai rendez-vous avec vous
TTITLE15=Le roi
EXTD=
EXTT0=
EXTT1=
EXTT2=
EXTT3=
EXTT4=
EXTT5=
EXTT6=
EXTT7=
EXTT8=
EXTT9=
EXTT10=
EXTT11=
EXTT12=
EXTT13=
EXTT14=
EXTT15=
PLAYORDER=
